<svg id="Ebene_1" data-name="Ebene 1" xmlns="http://www.w3.org/2000/svg" viewBox="0 0 716.2 207.06"><defs><style>.cls-1{fill:#00305d;}</style></defs><path class="cls-1" d="M378.25,39.61H367c-1,4.42-3.74,8-9.18,8a9.55,9.55,0,0,1-7.14-2.89c-2.38-2.55-2.89-5.1-2.89-16,0-11,.51-13.6,2.89-16,1.53-1.87,4.08-2.89,7.14-2.89,5.44,0,8.16,3.4,9.18,7.82h11.22C376.38,6.12,368.22,0,357.68,0a20.88,20.88,0,0,0-15.3,6.12c-5.78,5.78-5.61,12.75-5.61,22.61,0,9.52-.17,16.83,5.61,22.44a20.88,20.88,0,0,0,15.3,6.12c10.2,0,18.7-6.12,20.57-17.68Zm163.53,8c-5.27,0-10-1.19-13.43-4.93L521,50c5.61,5.61,12.07,7.31,20.4,7.31,11.9,0,21.25-6.12,21.25-17,0-5.1-1.36-9.18-4.42-11.9-2.55-2.38-5.78-3.74-10.71-4.59l-7-.85a9.27,9.27,0,0,1-5.1-2A6.26,6.26,0,0,1,534,16.66c0-3.74,2.72-7,8.67-7,3.74,0,7.82.34,11.39,3.91l7-7.14C556.23,1.87,550.79,0,542.8,0c-12.07,0-19.55,7-19.55,17,0,4.93,1.53,8.67,4.25,11.39,2.38,2.38,6,3.91,10.71,4.42l7,1c2.55.34,3.91,1,4.93,2a6.59,6.59,0,0,1,1.7,4.59c0,4.76-3.4,7.14-10,7.14Zm51,9.69c10.54,0,18.87-6.12,20.74-17.68h-11c-1,4.42-3.74,8-9.69,8a9.44,9.44,0,0,1-7-2.89c-2.21-2.55-2.55-5.1-2.55-16,0-11,.34-13.6,2.55-16a8.84,8.84,0,0,1,7-2.89c6,0,8.67,3.4,9.69,7.82h11C611.65,6.12,603.32,0,592.78,0a21,21,0,0,0-15.13,6.12C572,11.9,572,18.87,572,28.73c0,9.52,0,16.83,5.61,22.44a21,21,0,0,0,15.13,6.12ZM144,.51H62.73L0,63.24V144.5l62.73,62.56H144l62.73-62.56V63.24Zm110.16,9.86V56.78H265V10.37h14.79V.51H239.53v9.86Zm72.93,46.41V47.09H300.9V33.32h22.44V23.46H300.9V10.37h26.18V.51H290V56.78Zm72.76,0V33.32h18.87V56.78h11.05V.51H418.71V23.63H399.84V.51H388.45V56.78Zm55.08,0V22.44l22.43,34.34H487V.51H476V35L453.56.51h-9.69V56.78Zm57.11,0V.51H501V56.78Zm122.74,0V33.32H654V56.78h11V.51H654V23.63H634.77V.51H623.89V56.78Zm55.59-46.41H716.2V.51H679.14V56.78H716.2V47.09H690.36V33.32h22.1V23.46h-22.1ZM200.6,65.79V142l-59,59.16H65.28L6.29,142V65.79l59-59.16h76.33Zm-61.37-52.7H67.66L12.75,68.17v7.48H75.31v65.62h56.27V75.65h62.56V68.17Zm47.6,56.44H125.46V135h-44V69.53H19.89L70,19.21h66.81ZM634.6,65.62v9.69h9.69V65.62Zm26.18,0v9.69h10V65.62ZM558.1,115.43c0-4.93-1.53-9-4.59-11.73-2.38-2.38-5.61-3.91-10.88-4.59l-6.46-.85a9.5,9.5,0,0,1-5.27-2.38,6.09,6.09,0,0,1-1.53-4.08c0-3.91,2.89-6.8,8.5-6.8,3.57,0,8.16.34,11.56,3.57l7.14-6.63C551.64,77,546,75.31,538.21,75.31c-12.24,0-19.55,7-19.55,17,0,4.93,1.36,8.33,4.08,11,2.38,2.72,6,4.08,11,4.76l6.63.85c2.55.51,3.74.85,4.93,2,1.36,1,1.7,2.89,1.7,4.93,0,4.25-3.57,6.8-9.86,6.8-5.1,0-10-1.19-13.6-4.76l-7.14,7.14c5.44,5.61,12.07,7.48,20.57,7.48,11.73,0,21.08-6.29,21.08-17.17Zm-288-39.78V112.2c0,6.63-4.25,10.54-10.2,10.54-5.78,0-9.52-3.91-9.52-10.54V75.65h-11v37.23c0,11.9,9,19.72,20.57,19.72,11.9,0,20.91-7.82,20.91-19.72V75.65Zm55.59,0v34.68L303.45,75.65h-9.69v56.44h11.05V97.41l22.27,34.68h9.69V75.65Zm24.14,0v56.44h11.22V75.65Zm45.39,56.44L414,75.65H402.39l-11.22,36.89L379.78,75.65H368.39l18.53,56.44Zm36.89-46.58h26.18V75.65H421.09v56.44h37.23V122.4H432.14V108.63h22.27V98.77H432.14Zm67.14,46.58H512l-12.75-24.31A15.27,15.27,0,0,0,509.48,93c0-9.35-6.63-17.34-18-17.34H469.19v56.44h11.22V109.65h7.82Zm80.41,0V75.65H568.81v56.44Zm49.64-46.58V75.65H589v9.86h14.79v46.58h10.88V85.51ZM657,75.65H648.2l-20.74,56.44h11.9l3.23-9.86h20.06l3.4,9.86h11.39Zm18.7,0v9.86h14.79v46.58h10.88V85.51H716.2V75.65ZM137.87,81.94v66H69v-66H12.75v57.63l54.91,55.08h71.57l54.91-55.08V81.94Zm352.74,18.53h-10.2v-15h10.2c5.1,0,8.16,3.06,8.16,7.48s-3.06,7.48-8.16,7.48ZM144,154V88.23h44.2V137l-51.34,51.51H70L18.7,137V88.23h44V154Zm515.77-41H645.82l7-20.74ZM424.49,178.5c-2.55-2.21-5.78-3.57-10.71-4.25l-6.46-.85a13.77,13.77,0,0,1-5.44-2.21,5.8,5.8,0,0,1-1.7-4.08c0-4.08,2.89-7.14,8.84-7.14,3.57,0,7.82.51,11.39,3.74l7-6.8c-4.93-4.76-10.37-6.46-18.19-6.46-12.07,0-19.55,7-19.55,17,0,4.76,1.36,8.33,4.08,11.05a19.57,19.57,0,0,0,10.88,4.76l6.8.85c2.55.34,3.91,1,4.93,2a7.37,7.37,0,0,1,1.7,4.76c0,4.59-3.4,7-9.86,7-5.44,0-10.2-1.36-13.6-4.76l-7.31,7.31c5.78,5.44,12.07,7.31,20.91,7.31,11.39,0,20.57-6.29,20.57-17.17,0-4.76-1.19-9.18-4.25-12.07Zm-149.6-22.1c-3.74-3.74-9.35-5.44-15.13-5.44H239.53v56.1h20.23c5.78,0,11.39-1.53,15.13-5.1,6.12-6.46,5.61-14.62,5.61-23.29,0-8.33.51-16.32-5.61-22.27Zm57.29,11.73c0-9.35-6.63-17.17-18-17.17h-22.1v56.1h10.88V184.79h8l11.22,22.27h12.41l-12.41-24.31a14.91,14.91,0,0,0,10-14.62ZM344.08,151v56.1h37.23v-9.69h-26V183.6h22.1v-9.86H355.3V160.65h26V151ZM474.8,156.4c-3.74-3.74-9-5.44-14.78-5.44h-20.4v56.1H460c5.77,0,11-1.53,14.78-5.1,6.46-6.46,5.78-14.62,5.78-23.29,0-8.33.68-16.32-5.78-22.27ZM492,151v56.1h37.4v-9.69H503V183.6h22.27v-9.86H503V160.65h26.35V151Zm80.41,0v34.51L550.11,151h-9.69v56.1h11.05V172.55l22.27,34.51h9.86V151ZM266.9,194a10.14,10.14,0,0,1-8.16,3.4h-8.33V160.65h8.33c3.57,0,6.29,1,8.16,3.4,2.38,2.55,2.72,6.29,2.72,14.62,0,8.84-.34,12.75-2.72,15.3Zm46.58-18.53H302.94V160.65h10.54c4.76,0,8,3.06,8,7.48s-3.23,7.31-8,7.31ZM467.15,194c-2,2.21-4.41,3.4-8.32,3.4H450.5V160.65h8.33c3.91,0,6.28,1,8.32,3.4,1.87,2.55,2.38,6.29,2.38,14.62,0,8.84-.51,12.75-2.38,15.3Z"/></svg>